<svg width="2009" height="685" viewBox="0 0 2009 685" fill="none" xmlns="http://www.w3.org/2000/svg">
<path d="M106.385 244.027V308.862H210.945V369.132H106.385V439.447H224.642V502H28.3086V181.474H224.642V244.027H106.385ZM177.614 117.095L67.5753 163.21V109.333L177.614 56.368V117.095ZM259.807 374.611C259.807 348.129 265.134 324.995 275.788 305.21C286.746 285.424 301.813 270.204 320.99 259.551C340.471 248.897 362.692 243.57 387.652 243.57C419.613 243.57 446.248 251.941 467.555 268.682C489.167 285.424 503.322 309.015 510.018 339.454H426.919C419.918 319.973 406.372 310.232 386.282 310.232C371.976 310.232 360.561 315.863 352.038 327.126C343.515 338.084 339.254 353.913 339.254 374.611C339.254 395.31 343.515 411.291 352.038 422.553C360.561 433.511 371.976 438.991 386.282 438.991C406.372 438.991 419.918 429.25 426.919 409.769H510.018C503.322 439.599 489.167 463.038 467.555 480.084C445.943 497.13 419.309 505.653 387.652 505.653C362.692 505.653 340.471 500.326 320.99 489.672C301.813 479.018 286.746 463.799 275.788 444.013C265.134 424.227 259.807 401.094 259.807 374.611ZM667.756 505.653C642.796 505.653 620.27 500.326 600.181 489.672C580.395 479.018 564.719 463.799 553.152 444.013C541.889 424.227 536.258 401.094 536.258 374.611C536.258 348.434 542.041 325.452 553.608 305.666C565.175 285.576 581.004 270.204 601.094 259.551C621.184 248.897 643.709 243.57 668.669 243.57C693.629 243.57 716.154 248.897 736.244 259.551C756.334 270.204 772.163 285.576 783.73 305.666C795.297 325.452 801.08 348.434 801.08 374.611C801.08 400.789 795.145 423.923 783.273 444.013C771.706 463.799 755.726 479.018 735.331 489.672C715.241 500.326 692.716 505.653 667.756 505.653ZM667.756 438.077C682.671 438.077 695.303 432.598 705.653 421.64C716.307 410.682 721.633 395.006 721.633 374.611C721.633 354.217 716.459 338.541 706.109 327.583C696.064 316.624 683.584 311.145 668.669 311.145C653.449 311.145 640.817 316.624 630.772 327.583C620.727 338.236 615.705 353.913 615.705 374.611C615.705 395.006 620.575 410.682 630.315 421.64C640.36 432.598 652.841 438.077 667.756 438.077ZM1437.42 247.223V502H1359.34V467.299C1351.43 478.562 1340.62 487.694 1326.92 494.695C1313.53 501.391 1298.61 504.74 1282.18 504.74C1262.7 504.74 1245.5 500.478 1230.58 491.955C1215.67 483.128 1204.1 470.495 1195.88 454.058C1187.66 437.621 1183.55 418.292 1183.55 396.071V247.223H1261.17V385.57C1261.17 402.616 1265.59 415.857 1274.41 425.293C1283.24 434.729 1295.11 439.447 1310.03 439.447C1325.25 439.447 1337.27 434.729 1346.1 425.293C1354.93 415.857 1359.34 402.616 1359.34 385.57V247.223H1437.42ZM1635.5 435.794V502H1595.78C1567.47 502 1545.4 495.151 1529.57 481.453C1513.74 467.451 1505.83 444.774 1505.83 413.422V312.059H1474.78V247.223H1505.83V185.126H1583.9V247.223H1635.04V312.059H1583.9V414.335C1583.9 421.945 1585.73 427.424 1589.38 430.772C1593.04 434.12 1599.12 435.794 1607.65 435.794H1635.5ZM1757.07 289.686C1766.2 275.683 1777.61 264.725 1791.31 256.811C1805.01 248.592 1820.23 244.483 1836.97 244.483V327.126H1815.51C1796.03 327.126 1781.42 331.387 1771.68 339.911C1761.94 348.129 1757.07 362.74 1757.07 383.743V502H1678.99V247.223H1757.07V289.686ZM1913.55 220.74C1899.86 220.74 1888.59 216.783 1879.77 208.869C1871.24 200.651 1866.98 190.606 1866.98 178.734C1866.98 166.558 1871.24 156.513 1879.77 148.599C1888.59 140.381 1899.86 136.271 1913.55 136.271C1926.95 136.271 1937.91 140.381 1946.43 148.599C1955.26 156.513 1959.67 166.558 1959.67 178.734C1959.67 190.606 1955.26 200.651 1946.43 208.869C1937.91 216.783 1926.95 220.74 1913.55 220.74ZM1952.36 247.223V502H1874.29V247.223H1952.36Z" fill="#004F21"/>
<path d="M1129.24 502H1051.16L920.578 304.296V502H842.501V181.474H920.578L1051.16 380.09V181.474H1129.24V502Z" fill="#00FF6A"/>
<path d="M1911.97 240.47C1907.79 240.47 1903.57 239.996 1899.33 239.047C1895.08 238.099 1890.73 236.734 1886.29 234.953C1887.81 219.607 1892.25 205.275 1899.61 191.958C1906.96 178.64 1916.41 166.909 1927.95 156.762C1914 163.865 1901.92 173.25 1891.72 184.919C1881.51 196.587 1874.37 209.904 1870.31 224.87C1869.8 224.49 1869.33 224.079 1868.89 223.637L1867.46 222.207C1861.49 216.246 1856.96 209.587 1853.86 202.231C1850.75 194.875 1849.2 187.201 1849.19 179.211C1849.19 170.587 1850.9 162.343 1854.33 154.479C1857.75 146.616 1862.51 139.64 1868.6 133.552C1878.87 123.279 1892.19 116.59 1908.55 113.485C1924.91 110.38 1947.87 110.094 1977.42 112.625C1979.7 142.938 1979.32 166.054 1976.28 181.974C1973.23 197.893 1966.64 210.924 1956.49 221.065C1950.28 227.28 1943.33 232.069 1935.66 235.433C1927.98 238.796 1920.09 240.475 1911.97 240.47Z" fill="#18FF79"/>
<path d="M998.413 181.983C998.413 148.25 1010.44 115.898 1031.85 92.0444C1053.25 68.1911 1082.29 56.2509 1112.56 56.2509L1120.17 54.7904C1124.21 54.7904 1128.08 56.5771 1130.93 59.7576C1133.79 62.938 1135.39 67.2516 1135.39 71.7495V275.258C1135.39 277.938 1136 286.587 1137.19 300.12C1138.31 313.179 1139.85 329.68 1141.49 347.266L1141.69 349.352C1145.8 393.412 1150.61 445.103 1150.61 461.808C1150.61 479.799 1144.2 497.054 1132.78 509.775C1121.36 522.497 1105.88 529.644 1089.73 529.644C1073.59 529.644 1058.1 522.497 1046.68 509.775C1035.27 497.054 1028.85 479.799 1028.85 461.808C1028.85 447.596 1032.31 404.707 1035.82 364.497C1038.24 336.769 1040.75 309.549 1042.38 292.217H1036.46C1026.37 292.217 1016.69 287.75 1009.56 279.799C1002.42 271.848 998.413 261.064 998.413 249.82V181.983ZM952.359 67.8997C951.542 63.9982 949.512 60.5447 946.629 58.1514C943.745 55.758 940.195 54.5794 936.606 54.8243C928.54 55.3331 922.163 62.7442 922.163 71.8512V173.606C922.223 178.081 920.686 182.4 917.889 185.612C915.092 188.824 911.264 190.667 907.247 190.734C903.231 190.802 899.355 189.089 896.472 185.972C893.59 182.855 891.936 178.59 891.876 174.114V71.7495C891.876 67.2516 890.272 62.938 887.418 59.7576C884.564 56.5771 880.692 54.7904 876.656 54.7904C872.619 54.7904 868.748 56.5771 865.894 59.7576C863.04 62.938 861.436 67.2516 861.436 71.7495V174.606C861.188 178.976 859.424 183.067 856.519 186.015C853.614 188.962 849.794 190.537 845.866 190.405C841.939 190.272 838.211 188.444 835.47 185.307C832.73 182.169 831.191 177.967 831.18 173.589V71.8682C831.169 67.6916 829.786 63.6642 827.291 60.5474C824.795 57.4307 821.362 55.4409 817.639 54.9542C813.917 54.4675 810.163 55.5178 807.088 57.9064C804.014 60.295 801.831 63.8563 800.953 67.9168C800.618 69.477 785.338 141.96 785.338 190.463C785.326 205.792 788.428 220.926 794.411 234.73C800.394 248.534 809.104 260.65 819.887 270.17C827.436 276.852 830.997 284.128 830.997 290.216C830.994 290.862 830.959 291.508 830.89 292.149C829.977 300.697 826.218 336.141 822.687 372.756C819.217 408.76 815.777 447.562 815.777 461.808C815.777 479.799 822.191 497.054 833.608 509.775C845.025 522.497 860.51 529.644 876.656 529.644C892.802 529.644 935.212 522.497 946.629 509.775C958.046 497.054 964.46 479.799 964.46 461.808C964.46 447.579 934.095 408.76 930.625 372.756C927.094 336.141 923.319 300.68 922.406 292.149C922.343 291.507 922.312 290.862 922.315 290.216C922.315 284.128 925.876 276.852 933.425 270.17C944.208 260.65 952.917 248.534 958.901 234.73C964.884 220.926 967.986 205.792 967.974 190.463C967.974 141.926 952.648 69.3073 952.359 67.8997ZM935.921 54.8752L936.226 54.8582H936.104L935.982 54.8752H935.921Z" fill="#00FF6A"/>
</svg>
